CATALOG 0000000000000
FILE "Cosmopolitan Interactive - Tonetics (1995)(Philips)(US)(Track 01 of 45)[DVC].iso" BINARY
  TRACK 01 MODE2/2352
    INDEX 01 00:00:00
FILE "Cosmopolitan Interactive - Tonetics (1995)(Philips)(US)(Track 02 of 45)[DVC].iso" BINARY
  TRACK 02 MODE2/2352
    PREGAP 00:00:00
    INDEX 01 00:00:00
FILE "Cosmopolitan Interactive - Tonetics (1995)(Philips)(US)(Track 03 of 45)[DVC].iso" BINARY
  TRACK 03 MODE2/2352
    PREGAP 00:00:00
    INDEX 01 00:00:00
FILE "Cosmopolitan Interactive - Tonetics (1995)(Philips)(US)(Track 04 of 45)[DVC].iso" BINARY
  TRACK 04 MODE2/2352
    PREGAP 00:00:00
    INDEX 01 00:00:00
FILE "Cosmopolitan Interactive - Tonetics (1995)(Philips)(US)(Track 05 of 45)[DVC].iso" BINARY
  TRACK 05 MODE2/2352
    PREGAP 00:00:00
    INDEX 01 00:00:00
FILE "Cosmopolitan Interactive - Tonetics (1995)(Philips)(US)(Track 06 of 45)[DVC].iso" BINARY
  TRACK 06 MODE2/2352
    PREGAP 00:00:00
    INDEX 01 00:00:00
FILE "Cosmopolitan Interactive - Tonetics (1995)(Philips)(US)(Track 07 of 45)[DVC].iso" BINARY
  TRACK 07 MODE2/2352
    PREGAP 00:00:00
    INDEX 01 00:00:00
FILE "Cosmopolitan Interactive - Tonetics (1995)(Philips)(US)(Track 08 of 45)[DVC].iso" BINARY
  TRACK 08 MODE2/2352
    PREGAP 00:00:00
    INDEX 01 00:00:00
FILE "Cosmopolitan Interactive - Tonetics (1995)(Philips)(US)(Track 09 of 45)[DVC].iso" BINARY
  TRACK 09 MODE2/2352
    PREGAP 00:00:00
    INDEX 01 00:00:00
FILE "Cosmopolitan Interactive - Tonetics (1995)(Philips)(US)(Track 10 of 45)[DVC].iso" BINARY
  TRACK 10 MODE2/2352
    PREGAP 00:00:00
    INDEX 01 00:00:00
FILE "Cosmopolitan Interactive - Tonetics (1995)(Philips)(US)(Track 11 of 45)[DVC].iso" BINARY
  TRACK 11 MODE2/2352
    PREGAP 00:00:00
    INDEX 01 00:00:00
FILE "Cosmopolitan Interactive - Tonetics (1995)(Philips)(US)(Track 12 of 45)[DVC].iso" BINARY
  TRACK 12 MODE2/2352
    PREGAP 00:00:00
    INDEX 01 00:00:00
FILE "Cosmopolitan Interactive - Tonetics (1995)(Philips)(US)(Track 13 of 45)[DVC].iso" BINARY
  TRACK 13 MODE2/2352
    PREGAP 00:00:00
    INDEX 01 00:00:00
FILE "Cosmopolitan Interactive - Tonetics (1995)(Philips)(US)(Track 14 of 45)[DVC].iso" BINARY
  TRACK 14 MODE2/2352
    PREGAP 00:00:00
    INDEX 01 00:00:00
FILE "Cosmopolitan Interactive - Tonetics (1995)(Philips)(US)(Track 15 of 45)[DVC].iso" BINARY
  TRACK 15 MODE2/2352
    PREGAP 00:00:00
    INDEX 01 00:00:00
FILE "Cosmopolitan Interactive - Tonetics (1995)(Philips)(US)(Track 16 of 45)[DVC].iso" BINARY
  TRACK 16 MODE2/2352
    PREGAP 00:00:00
    INDEX 01 00:00:00
FILE "Cosmopolitan Interactive - Tonetics (1995)(Philips)(US)(Track 17 of 45)[DVC].iso" BINARY
  TRACK 17 MODE2/2352
    PREGAP 00:00:00
    INDEX 01 00:00:00
FILE "Cosmopolitan Interactive - Tonetics (1995)(Philips)(US)(Track 18 of 45)[DVC].iso" BINARY
  TRACK 18 MODE2/2352
    PREGAP 00:00:00
    INDEX 01 00:00:00
FILE "Cosmopolitan Interactive - Tonetics (1995)(Philips)(US)(Track 19 of 45)[DVC].iso" BINARY
  TRACK 19 MODE2/2352
    PREGAP 00:00:00
    INDEX 01 00:00:00
FILE "Cosmopolitan Interactive - Tonetics (1995)(Philips)(US)(Track 20 of 45)[DVC].iso" BINARY
  TRACK 20 MODE2/2352
    PREGAP 00:00:00
    INDEX 01 00:00:00
FILE "Cosmopolitan Interactive - Tonetics (1995)(Philips)(US)(Track 21 of 45)[DVC].iso" BINARY
  TRACK 21 MODE2/2352
    PREGAP 00:00:00
    INDEX 01 00:00:00
FILE "Cosmopolitan Interactive - Tonetics (1995)(Philips)(US)(Track 22 of 45)[DVC].iso" BINARY
  TRACK 22 MODE2/2352
    PREGAP 00:00:00
    INDEX 01 00:00:00
FILE "Cosmopolitan Interactive - Tonetics (1995)(Philips)(US)(Track 23 of 45)[DVC].iso" BINARY
  TRACK 23 MODE2/2352
    PREGAP 00:00:00
    INDEX 01 00:00:00
FILE "Cosmopolitan Interactive - Tonetics (1995)(Philips)(US)(Track 24 of 45)[DVC].iso" BINARY
  TRACK 24 MODE2/2352
    PREGAP 00:00:00
    INDEX 01 00:00:00
FILE "Cosmopolitan Interactive - Tonetics (1995)(Philips)(US)(Track 25 of 45)[DVC].iso" BINARY
  TRACK 25 MODE2/2352
    PREGAP 00:00:00
    INDEX 01 00:00:00
FILE "Cosmopolitan Interactive - Tonetics (1995)(Philips)(US)(Track 26 of 45)[DVC].iso" BINARY
  TRACK 26 MODE2/2352
    PREGAP 00:00:00
    INDEX 01 00:00:00
FILE "Cosmopolitan Interactive - Tonetics (1995)(Philips)(US)(Track 27 of 45)[DVC].iso" BINARY
  TRACK 27 MODE2/2352
    PREGAP 00:00:00
    INDEX 01 00:00:00
FILE "Cosmopolitan Interactive - Tonetics (1995)(Philips)(US)(Track 28 of 45)[DVC].iso" BINARY
  TRACK 28 MODE2/2352
    PREGAP 00:00:00
    INDEX 01 00:00:00
FILE "Cosmopolitan Interactive - Tonetics (1995)(Philips)(US)(Track 29 of 45)[DVC].iso" BINARY
  TRACK 29 MODE2/2352
    PREGAP 00:00:00
    INDEX 01 00:00:00
FILE "Cosmopolitan Interactive - Tonetics (1995)(Philips)(US)(Track 30 of 45)[DVC].iso" BINARY
  TRACK 30 MODE2/2352
    PREGAP 00:00:00
    INDEX 01 00:00:00
FILE "Cosmopolitan Interactive - Tonetics (1995)(Philips)(US)(Track 31 of 45)[DVC].iso" BINARY
  TRACK 31 MODE2/2352
    PREGAP 00:00:00
    INDEX 01 00:00:00
FILE "Cosmopolitan Interactive - Tonetics (1995)(Philips)(US)(Track 32 of 45)[DVC].iso" BINARY
  TRACK 32 MODE2/2352
    PREGAP 00:00:00
    INDEX 01 00:00:00
FILE "Cosmopolitan Interactive - Tonetics (1995)(Philips)(US)(Track 33 of 45)[DVC].iso" BINARY
  TRACK 33 MODE2/2352
    PREGAP 00:00:00
    INDEX 01 00:00:00
FILE "Cosmopolitan Interactive - Tonetics (1995)(Philips)(US)(Track 34 of 45)[DVC].iso" BINARY
  TRACK 34 MODE2/2352
    PREGAP 00:00:00
    INDEX 01 00:00:00
FILE "Cosmopolitan Interactive - Tonetics (1995)(Philips)(US)(Track 35 of 45)[DVC].iso" BINARY
  TRACK 35 MODE2/2352
    PREGAP 00:00:00
    INDEX 01 00:00:00
FILE "Cosmopolitan Interactive - Tonetics (1995)(Philips)(US)(Track 36 of 45)[DVC].iso" BINARY
  TRACK 36 MODE2/2352
    PREGAP 00:00:00
    INDEX 01 00:00:00
FILE "Cosmopolitan Interactive - Tonetics (1995)(Philips)(US)(Track 37 of 45)[DVC].iso" BINARY
  TRACK 37 MODE2/2352
    PREGAP 00:00:00
    INDEX 01 00:00:00
FILE "Cosmopolitan Interactive - Tonetics (1995)(Philips)(US)(Track 38 of 45)[DVC].iso" BINARY
  TRACK 38 MODE2/2352
    PREGAP 00:00:00
    INDEX 01 00:00:00
FILE "Cosmopolitan Interactive - Tonetics (1995)(Philips)(US)(Track 39 of 45)[DVC].iso" BINARY
  TRACK 39 MODE2/2352
    PREGAP 00:00:00
    INDEX 01 00:00:00
FILE "Cosmopolitan Interactive - Tonetics (1995)(Philips)(US)(Track 40 of 45)[DVC].iso" BINARY
  TRACK 40 MODE2/2352
    PREGAP 00:00:00
    INDEX 01 00:00:00
FILE "Cosmopolitan Interactive - Tonetics (1995)(Philips)(US)(Track 41 of 45)[DVC].iso" BINARY
  TRACK 41 MODE2/2352
    PREGAP 00:00:00
    INDEX 01 00:00:00
FILE "Cosmopolitan Interactive - Tonetics (1995)(Philips)(US)(Track 42 of 45)[DVC].iso" BINARY
  TRACK 42 MODE2/2352
    PREGAP 00:00:00
    INDEX 01 00:00:00
FILE "Cosmopolitan Interactive - Tonetics (1995)(Philips)(US)(Track 43 of 45)[DVC].iso" BINARY
  TRACK 43 MODE2/2352
    PREGAP 00:00:00
    INDEX 01 00:00:00
FILE "Cosmopolitan Interactive - Tonetics (1995)(Philips)(US)(Track 44 of 45)[DVC].iso" BINARY
  TRACK 44 MODE2/2352
    PREGAP 00:00:00
    INDEX 01 00:00:00
FILE "Cosmopolitan Interactive - Tonetics (1995)(Philips)(US)(Track 45 of 45)[DVC].iso" BINARY
  TRACK 45 MODE2/2352
    PREGAP 00:00:00
    INDEX 01 00:00:00
